<svg width="96" height="96" viewBox="0 0 96 96" fill="none" xmlns="http://www.w3.org/2000/svg">
  <path d="M48 12L58 20L64 34V59L59 77L49 84H31L23 76L20 58L28 36L38 18L48 12Z" fill="#C7A7CF"/>
  <path d="M49 84H31L25 92H38L44 88L49 84Z" fill="#A781B0"/>
  <path d="M49 84H62L70 92H58L52 88L49 84Z" fill="#A781B0"/>
  <path d="M25 48L14 69L20 77L30 55L25 48Z" fill="#C7A7CF"/>
  <path d="M64 49L78 69L72 78L58 55L64 49Z" fill="#C7A7CF"/>
  <path d="M36 26L29 40L33 55L48 61L64 57L69 41L61 26L48 20L36 26Z" fill="#C7A7CF"/>
  <path d="M48 25C37.5066 25 29 33.5066 29 44C29 54.4934 37.5066 63 48 63C58.4934 63 67 54.4934 67 44C67 33.5066 58.4934 25 48 25Z" fill="#B691BF"/>
  <path d="M47.5 31C40.0442 31 34 37.0442 34 44.5C34 51.9558 40.0442 58 47.5 58C54.9558 58 61 51.9558 61 44.5C61 37.0442 54.9558 31 47.5 31Z" fill="#D8BDD9"/>
  <circle cx="48" cy="45" r="9" fill="#2E3240"/>
  <circle cx="48" cy="45" r="5" fill="#F4F2F9"/>
  <circle cx="48" cy="45" r="2.8" fill="#1B1D22"/>
  <circle cx="50" cy="42.5" r="1.2" fill="white"/>
  <path d="M39 59L37 72L41 81H48V61L39 59Z" fill="#C7A7CF"/>
  <path d="M57 59L59 72L55 81H48V61L57 59Z" fill="#C7A7CF"/>
  <path d="M43 17L47 7L54 16L48 20L43 17Z" fill="#B691BF"/>
  <path d="M23 76L20 58L28 36L38 18L48 12L58 20L64 34V59L59 77L49 84H31L23 76Z" stroke="#7E638B" stroke-width="2.2" stroke-linecap="round" stroke-linejoin="round"/>
  <path d="M29 40C32 35 38 31 47.5 31C57 31 63 35 66 40" stroke="#7E638B" stroke-width="2.2" stroke-linecap="round"/>
  <path d="M32 63C37 66 43 67.5 48 67.5C53 67.5 59 66 64 63" stroke="#7E638B" stroke-width="2.2" stroke-linecap="round"/>
</svg>
